<svg width="416" height="285" viewBox="0 0 416 285" fill="none" xmlns="http://www.w3.org/2000/svg">
<path opacity="0.1" d="M412.888 141.053C431.069 236.43 332.269 312.242 240.117 243.162C78.9053 122.33 158.711 169.979 72.1485 184.074C-14.4134 198.169 -22.1742 57.4837 47.3196 59.2982C116.813 61.1126 138.169 117.176 210.783 65.5304C283.398 13.8844 397.719 61.5859 412.888 141.053V141.053Z" fill="#2A94F4"/>
<path d="M224.46 284C162.58 284 112.417 235.388 112.417 175.423C112.417 115.457 162.58 66.8452 224.46 66.8452C286.339 66.8452 336.502 115.457 336.502 175.423C336.502 235.388 286.339 284 224.46 284Z" fill="#CCE9FF"/>
<path d="M348.794 151.809C339.562 151.809 332.079 144.556 332.079 135.61C332.079 126.664 339.562 119.411 348.794 119.411C358.026 119.411 365.51 126.664 365.51 135.61C365.51 144.556 358.026 151.809 348.794 151.809Z" fill="#0B4870"/>
<path d="M338.347 106.474C333.461 106.474 329.501 102.636 329.501 97.9011C329.501 93.1666 333.461 89.3285 338.347 89.3285C343.233 89.3285 347.193 93.1666 347.193 97.9011C347.193 102.636 343.233 106.474 338.347 106.474Z" fill="#F59A2F"/>
<path d="M320.628 126.17C319.009 126.17 317.697 124.898 317.697 123.33C317.697 121.761 319.009 120.49 320.628 120.49C322.246 120.49 323.558 121.761 323.558 123.33C323.558 124.898 322.246 126.17 320.628 126.17Z" fill="#0B4870"/>
<path d="M270.78 69.6589C270.78 69.6589 273.602 47.6489 266.492 37.6037C257.212 24.5344 230.891 20.8793 218.327 28.0844C204.434 36.0522 193.362 56.6159 198.22 74.6289C177.57 80.3878 172.631 103.134 187.148 108.972L174.72 134.769C166.987 150.809 174.883 169.979 192.63 178.263L224.405 193.094C224.405 193.094 283.045 202.034 294.659 175.712C306.273 149.389 283.533 130.193 283.533 130.193C283.533 130.193 302.094 110.208 293.248 90.7222C284.375 71.2367 270.78 69.6589 270.78 69.6589V69.6589Z" fill="#0B4870"/>
<path d="M180.609 145.077C180.609 145.077 127.315 153.255 112.879 152.65C101.563 153.255 82.9213 93.2204 81.2932 89.5389C72.2571 84.043 70.0049 76.5222 70.1406 72.3674C70.2762 68.2126 81.8088 64.7152 82.9213 66.8189C81.0219 61.323 80.5877 59.5874 80.0721 57.6941C78.9867 53.7759 82.0801 50.8044 86.5032 65.5567C90.872 80.0985 90.4378 77.7056 91.4961 82.8333C98.6327 96.113 117.031 127.09 118.279 131.771C142.131 131.219 182.535 122.225 182.535 122.225L180.609 145.077V145.077ZM287.332 131.061C287.332 131.061 312.596 177 317.507 189.833C322.391 199.379 271.648 243.346 268.799 246.528C267.035 256.967 262.368 260.57 258.406 262.437C254.444 264.278 246.765 255.942 248.312 253.996C243.834 258.256 242.369 259.439 240.795 260.807C237.512 263.594 233.523 262.332 245.761 251.498C257.836 240.795 255.72 242.32 260.17 238.954C269.993 226.464 292.244 195.802 296.179 192.489C286.6 172.057 262.721 141.211 262.721 141.211L287.332 131.061Z" fill="#FFE3CA"/>
<path d="M229.453 284L214.718 222.046L189.618 236.614C189.618 236.614 187.583 254.443 184.978 277.557C184.978 277.557 204.624 284.447 229.453 284Z" fill="#0B4870"/>
<path d="M204.135 282.107C200.119 258.598 196.917 239.664 196.917 239.664C196.917 239.664 265.597 230.408 265.841 248.605C265.923 254.18 265.244 264.909 263.643 277.163C227.526 288.418 204.135 282.107 204.135 282.107V282.107Z" fill="#0E538C"/>
<path d="M203.62 162.274C205.655 166.85 190.215 230.382 187.637 245.029C187.637 245.029 187.963 244.976 188.587 244.871C195.289 243.898 236.291 238.665 269.423 252.05L272.462 162.301L272.598 158.961C272.598 158.961 272.598 155.569 272.272 150.389V150.336C271.512 139.66 269.233 121.647 262.151 110.076C258.487 104.081 253.63 99.7944 246.982 99.1633C226.386 97.1911 226.495 105.369 207.364 109.945L176.321 117.413C176.321 117.413 179.795 140.738 176.321 147.68H197.867C197.867 147.654 201.612 157.646 203.62 162.274V162.274Z" fill="#F59A2F"/>
<path d="M215.451 39.2867C215.451 39.2867 196.564 66.74 206.469 80.1511C213.877 90.1963 226.305 95.4556 226.305 95.4556V109.919C226.305 109.919 227.797 111.207 230.402 111.339C234.934 111.575 246.982 104.528 246.982 104.528V47.57L215.451 39.2867Z" fill="#FFE3CA"/>
<path d="M272.516 165.982C272.516 165.982 244.024 133.98 248.556 118.57C253.088 103.16 274.633 108.446 286.681 126.196C298.729 143.946 303.505 150.02 303.505 150.02C303.505 150.02 291.104 166.271 272.516 165.982Z" fill="#F59A2F"/>
<path d="M215.505 36.6833C215.505 36.6833 214.04 65.2674 228.259 72.1833C242.478 79.0993 231.732 96.1393 245.273 108.867C249.289 112.627 255.258 111.996 259.844 110.681C266.411 108.788 273.928 110.155 278.513 114.757C278.948 115.204 279.355 115.677 279.68 116.151C297.264 104.896 252.708 42.337 252.708 42.337L215.505 36.6833Z" fill="#0B4870"/>
<path d="M163.866 192.962C170.026 202.192 173.608 213.184 173.608 224.991C173.608 257.572 146.337 284 112.716 284C79.0952 284 51.8242 257.572 51.8242 224.991C51.8242 192.41 79.0952 165.982 112.716 165.982C127.559 165.982 141.181 171.136 151.737 179.709L172.387 174.423L163.866 192.962V192.962ZM92.3916 16.1985C92.3916 25.1393 99.881 36.6833 109.107 36.6833C118.333 36.6833 125.822 25.1393 125.822 16.1985C125.822 7.25778 118.36 0 109.107 0C99.8539 0 92.3916 7.25778 92.3916 16.1985V16.1985Z" fill="#F59A2F"/>
<path d="M108.591 44.02C110.301 44.02 111.902 42.863 113.313 40.5752C114.317 38.9448 113.557 34.0274 112.743 28.8207C112.526 27.4533 112.336 26.1122 112.146 24.9026C113.34 21.3 113.069 18.9596 112.553 18.2759C112.363 18.013 112.092 17.9341 111.848 18.0393C111.359 18.2759 111.088 19.2752 111.088 20.8793C111.088 21.9311 111.224 23.2722 111.414 24.7711C111.332 25.0341 111.224 25.297 111.115 25.5863C110.138 28.1107 109.161 27.5585 108.836 27.3482C108.049 26.9011 107.289 25.6389 106.719 24.1926C106.936 20.9319 106.692 18.5915 106.312 17.9078C106.122 17.5396 105.878 17.5133 105.769 17.5133C105.389 17.5396 105.2 18.0393 105.145 18.197C104.657 19.4593 105.091 22.1152 105.986 24.3767C105.715 28.1896 104.792 33.4226 102.513 38.9185L102.405 39.1552L102.54 39.3656C102.649 39.5496 105.172 43.8885 108.51 43.9411C108.537 44.02 108.564 44.02 108.591 44.02V44.02ZM111.658 26.2963C111.793 27.1641 111.929 28.0582 112.065 28.9785C112.77 33.5541 113.584 38.7082 112.77 40.023C111.468 42.1004 110.057 43.1522 108.564 43.1259C105.986 43.0733 103.843 39.9704 103.3 39.1289C105.281 34.2904 106.258 29.557 106.638 25.7704C107.208 26.8748 107.886 27.7689 108.591 28.1633C109.243 28.5841 110.545 28.847 111.658 26.2963V26.2963ZM112.092 18.9333C112.282 19.2752 112.526 20.6689 111.956 23.0619C111.875 22.2467 111.821 21.5104 111.821 20.9056C111.821 19.6696 112.011 19.1174 112.092 18.9333ZM105.824 18.6178C105.986 19.1437 106.149 20.4585 106.122 22.3519C105.688 20.8267 105.525 19.3541 105.824 18.6178Z" fill="white"/>
<path d="M109.107 46.2289C112.472 46.2289 115.267 43.757 115.538 40.5226L116.108 34.3167L114.398 34.9478C110.898 36.2363 107.045 36.21 103.571 34.8689L102.133 34.3167L102.703 40.5226C102.974 43.757 105.769 46.2289 109.107 46.2289V46.2289Z" fill="#0B4870"/>
<path d="M39.9931 47.1493C41.9468 51.6459 48.2423 55.9322 52.8824 54.0389C57.5226 52.1456 58.7708 44.8089 56.817 40.2859C54.8633 35.7893 49.5176 33.6593 44.8503 35.5526C40.183 37.4459 38.0393 42.6263 39.9931 47.1493V47.1493Z" fill="#F59A2F"/>
<path d="M54.2391 57.8256C55.1074 57.4837 55.6501 56.5633 55.8672 55.117C56.03 54.0915 54.5647 51.7774 53.018 49.3319C52.611 48.7007 52.2311 48.0696 51.8783 47.4911C51.6884 45.44 51.0371 44.3093 50.6301 44.0726C50.4673 43.9674 50.3316 43.9937 50.2231 44.0989C50.0331 44.3093 50.1145 44.8878 50.4673 45.6767C50.6844 46.2026 51.0643 46.86 51.4984 47.57C51.4984 47.7278 51.5256 47.8856 51.5256 48.0433C51.5798 49.5159 50.9829 49.437 50.7658 49.4107C50.2774 49.3318 49.6261 48.8585 49.002 48.2537C48.405 46.5707 47.7537 45.44 47.4281 45.177C47.2653 45.0456 47.1296 45.0718 47.0754 45.0981C46.8854 45.2033 46.9125 45.4663 46.9125 45.5715C46.9397 46.3078 47.7538 47.5437 48.7035 48.5167C49.409 50.4889 50.0874 53.3026 50.1145 56.537V56.6685L50.2231 56.7474C50.3045 56.8263 52.5296 58.483 54.212 57.8256H54.2391V57.8256ZM51.9055 48.28C52.1497 48.7007 52.421 49.1215 52.6924 49.5422C54.0492 51.6985 55.5687 54.1441 55.4602 54.9593C55.2702 56.2741 54.7818 57.0893 54.022 57.3785C52.7195 57.8781 50.9557 56.7474 50.4944 56.4319C50.4402 53.5919 49.8975 51.0148 49.2462 49.0163C49.7618 49.4633 50.3045 49.7526 50.7387 49.8315C51.2 49.9104 51.9055 49.7789 51.9055 48.28V48.28ZM50.5216 44.467C50.6844 44.5985 51.1185 45.2559 51.3356 46.5707C51.1185 46.1763 50.9286 45.8081 50.7929 45.5189C50.5487 44.9141 50.4944 44.5985 50.5216 44.467ZM47.2924 45.5978C47.4824 45.8344 47.8623 46.4656 48.2422 47.4122C47.6995 46.7548 47.2924 46.0448 47.2924 45.5978Z" fill="white"/>
<path d="M54.9719 58.8248C56.6543 58.1411 57.5226 56.3267 56.9799 54.6437L55.8945 51.4093L55.1618 52.0667C53.6965 53.4341 51.7428 54.1967 49.7076 54.2493L48.8664 54.2756L50.4945 57.2733C51.3357 58.8511 53.2895 59.5085 54.9719 58.8248V58.8248Z" fill="#0B4870"/>
<path d="M105.037 72.867C104.711 76.4959 107.289 81.4396 111.034 81.7552C114.778 82.0707 118.252 77.6793 118.577 74.0504C118.903 70.4215 116.162 67.2133 112.418 66.8978C108.673 66.5822 105.389 69.2382 105.037 72.867V72.867Z" fill="#F59A2F"/>
<path d="M110.572 84.7004C111.278 84.753 111.956 84.3585 112.607 83.4644C113.069 82.8333 112.96 80.8085 112.825 78.6785C112.797 78.1263 112.77 77.5741 112.743 77.0744C113.367 75.6544 113.34 74.7078 113.15 74.4185C113.069 74.3133 112.987 74.2607 112.879 74.287C112.662 74.3659 112.526 74.7604 112.472 75.4178C112.445 75.8385 112.445 76.3907 112.472 77.0218L112.309 77.3374C111.82 78.3367 111.441 78.0737 111.332 77.9685C111.034 77.7581 110.762 77.2322 110.599 76.6274C110.817 75.3126 110.789 74.3659 110.681 74.0767C110.627 73.9189 110.518 73.8926 110.464 73.8926C110.301 73.8926 110.22 74.0767 110.192 74.1555C109.948 74.6552 110.03 75.7333 110.301 76.7063C110.057 78.2315 109.487 80.3352 108.347 82.4652L108.293 82.5704L108.347 82.6755C108.374 82.7544 109.243 84.5952 110.599 84.7529C110.545 84.7004 110.545 84.7004 110.572 84.7004V84.7004ZM112.472 77.6267C112.499 77.9685 112.526 78.3629 112.526 78.7311C112.635 80.5981 112.77 82.7281 112.39 83.2278C111.793 84.0167 111.169 84.4111 110.572 84.3322C109.541 84.227 108.781 82.8859 108.591 82.5178C109.568 80.6244 110.138 78.7311 110.464 77.2059C110.654 77.6792 110.898 78.0474 111.169 78.2578C111.413 78.4681 111.929 78.6259 112.472 77.6267V77.6267ZM112.933 74.6552C113.014 74.8129 113.042 75.3915 112.716 76.3118C112.716 75.97 112.716 75.6807 112.743 75.4441C112.797 74.9444 112.879 74.7341 112.933 74.6552ZM110.382 74.3133C110.437 74.5237 110.437 75.0759 110.355 75.8385C110.247 75.2074 110.247 74.6026 110.382 74.3133Z" fill="white"/>
<path d="M110.681 85.6207C112.038 85.7522 113.259 84.8318 113.503 83.5433L113.964 81.0452L113.259 81.2293C111.793 81.6237 110.22 81.4659 108.863 80.8085L108.293 80.5193V83.0437C108.293 84.4111 109.324 85.5156 110.681 85.6207V85.6207Z" fill="#0B4870"/>
</svg>
