<svg width="130" height="24" viewBox="0 0 130 24" fill="none" xmlns="http://www.w3.org/2000/svg">
<path d="M13.416 24C12.696 24 11.984 23.792 11.28 23.376C10.592 22.976 9.712 22.352 8.64 21.504C7.84 20.864 7.152 20.344 6.576 19.944C6.016 19.56 5.4 19.232 4.728 18.96C4.072 18.688 3.4 18.552 2.712 18.552C2.472 18.552 2.288 18.56 2.16 18.576L5.736 1.944C4.664 2.376 3.832 3.04 3.24 3.936C2.664 4.816 2.376 5.896 2.376 7.176C2.376 7.768 2.432 8.184 2.544 8.424C2.656 8.648 2.712 8.776 2.712 8.808C1.848 8.808 1.2 8.632 0.768 8.28C0.352 7.912 0.144 7.312 0.144 6.48C0.144 5.456 0.56 4.464 1.392 3.504C2.24 2.528 3.32 1.744 4.632 1.152C5.944 0.544 7.256 0.24 8.568 0.24C8.792 0.24 9.112 0.256 9.528 0.287999L5.832 17.52C6.28 17.632 6.736 17.792 7.2 18C7.68 18.224 8.256 18.52 8.928 18.888C9.968 19.448 10.856 19.872 11.592 20.16C12.328 20.464 13.096 20.616 13.896 20.616C14.616 20.616 15.288 20.488 15.912 20.232C15.784 21.4 15.496 22.32 15.048 22.992C14.616 23.664 14.072 24 13.416 24ZM11.9738 18.144C11.0618 18.144 10.3018 17.832 9.69375 17.208C9.08575 16.584 8.78175 15.608 8.78175 14.28C8.78175 13.096 9.01375 11.856 9.47775 10.56C9.95775 9.248 10.6618 8.144 11.5898 7.248C12.5338 6.336 13.6538 5.88 14.9498 5.88C15.6058 5.88 16.0938 5.992 16.4138 6.216C16.7338 6.44 16.8938 6.736 16.8938 7.104V7.272L17.1578 6H20.6138L18.8858 14.16C18.8218 14.4 18.7898 14.656 18.7898 14.928C18.7898 15.616 19.1178 15.96 19.7738 15.96C20.2218 15.96 20.6058 15.752 20.9258 15.336C21.2618 14.92 21.5258 14.376 21.7178 13.704H22.7258C22.1338 15.432 21.3978 16.608 20.5178 17.232C19.6538 17.84 18.7818 18.144 17.9018 18.144C17.2298 18.144 16.6858 17.96 16.2698 17.592C15.8698 17.208 15.6298 16.656 15.5498 15.936C15.0858 16.592 14.5658 17.128 13.9898 17.544C13.4298 17.944 12.7578 18.144 11.9738 18.144ZM13.5338 15.816C13.9338 15.816 14.3258 15.632 14.7098 15.264C15.1098 14.88 15.3818 14.36 15.5258 13.704L16.6778 8.28C16.6778 8.072 16.5978 7.872 16.4378 7.68C16.2778 7.472 16.0298 7.368 15.6938 7.368C15.0538 7.368 14.4778 7.744 13.9658 8.496C13.4538 9.232 13.0538 10.128 12.7658 11.184C12.4778 12.224 12.3338 13.144 12.3338 13.944C12.3338 14.744 12.4458 15.256 12.6698 15.48C12.9098 15.704 13.1978 15.816 13.5338 15.816ZM30.3906 18.144C29.4146 18.144 28.6946 17.888 28.2306 17.376C27.7826 16.848 27.5586 16.2 27.5586 15.432C27.5586 15.096 27.5986 14.72 27.6786 14.304C27.7586 13.872 27.8386 13.456 27.9186 13.056C28.0146 12.656 28.0786 12.4 28.1106 12.288C28.2386 11.728 28.3586 11.176 28.4706 10.632C28.5826 10.088 28.6386 9.648 28.6386 9.312C28.6386 8.496 28.3506 8.088 27.7746 8.088C27.3586 8.088 26.9906 8.296 26.6706 8.712C26.3506 9.112 26.0946 9.64 25.9026 10.296L24.2706 18H20.8146L23.3586 6H26.8146L26.5506 7.248C27.3506 6.352 28.2866 5.904 29.3586 5.904C30.1746 5.904 30.8226 6.128 31.3026 6.576C31.7826 7.024 32.0226 7.704 32.0226 8.616C32.0226 9.08 31.9666 9.6 31.8546 10.176C31.7426 10.736 31.5826 11.424 31.3746 12.24C31.2466 12.736 31.1266 13.224 31.0146 13.704C30.9186 14.168 30.8706 14.536 30.8706 14.808C30.8706 15.128 30.9426 15.376 31.0866 15.552C31.2306 15.728 31.4786 15.816 31.8306 15.816C32.3106 15.816 32.6946 15.648 32.9826 15.312C33.2706 14.96 33.5586 14.424 33.8466 13.704H34.8546C34.2626 15.464 33.5746 16.648 32.7906 17.256C32.0226 17.848 31.2226 18.144 30.3906 18.144ZM36.7238 18.144C35.8118 18.144 35.0518 17.832 34.4438 17.208C33.8357 16.584 33.5317 15.608 33.5317 14.28C33.5317 13.096 33.7638 11.856 34.2278 10.56C34.7078 9.248 35.4118 8.144 36.3398 7.248C37.2838 6.336 38.4038 5.88 39.6998 5.88C40.3558 5.88 40.8438 5.992 41.1638 6.216C41.4838 6.44 41.6438 6.736 41.6438 7.104V7.2L42.8198 1.68L46.3718 1.2L43.6118 14.16C43.5478 14.4 43.5158 14.656 43.5158 14.928C43.5158 15.248 43.5878 15.48 43.7318 15.624C43.8918 15.752 44.1478 15.816 44.4998 15.816C44.9478 15.816 45.3318 15.624 45.6518 15.24C45.9878 14.856 46.2518 14.344 46.4438 13.704H47.4518C46.4758 16.568 44.8678 18 42.6278 18C41.9718 18 41.4358 17.824 41.0198 17.472C40.6198 17.12 40.3718 16.608 40.2758 15.936C39.8598 16.576 39.3558 17.104 38.7638 17.52C38.1878 17.936 37.5078 18.144 36.7238 18.144ZM38.2838 15.816C38.6678 15.816 39.0518 15.64 39.4358 15.288C39.8358 14.936 40.1078 14.448 40.2518 13.824V13.704L41.4278 8.208C41.2838 7.648 40.9558 7.368 40.4438 7.368C39.8038 7.368 39.2278 7.744 38.7158 8.496C38.2038 9.232 37.8038 10.128 37.5158 11.184C37.2278 12.224 37.0838 13.144 37.0838 13.944C37.0838 14.744 37.1958 15.256 37.4198 15.48C37.6598 15.704 37.9478 15.816 38.2838 15.816ZM50.4611 4.704C49.9331 4.704 49.4851 4.52 49.1171 4.152C48.7491 3.784 48.5651 3.336 48.5651 2.808C48.5651 2.28 48.7491 1.832 49.1171 1.464C49.4851 1.08 49.9331 0.887999 50.4611 0.887999C50.9891 0.887999 51.4371 1.08 51.8051 1.464C52.1891 1.832 52.3811 2.28 52.3811 2.808C52.3811 3.336 52.1891 3.784 51.8051 4.152C51.4371 4.52 50.9891 4.704 50.4611 4.704ZM48.8291 18.144C48.0611 18.144 47.4371 17.904 46.9571 17.424C46.4931 16.944 46.2611 16.224 46.2611 15.264C46.2611 14.864 46.3251 14.344 46.4531 13.704L48.0851 6H51.5411L49.8131 14.16C49.7491 14.4 49.7171 14.656 49.7171 14.928C49.7171 15.248 49.7891 15.48 49.9331 15.624C50.0931 15.752 50.3491 15.816 50.7011 15.816C51.1651 15.816 51.5971 15.624 51.9971 15.24C52.3971 14.84 52.6851 14.328 52.8611 13.704H53.8691C53.2771 15.432 52.5171 16.608 51.5891 17.232C50.6611 17.84 49.7411 18.144 48.8291 18.144ZM61.5156 18.144C60.5396 18.144 59.8196 17.888 59.3556 17.376C58.9076 16.848 58.6836 16.2 58.6836 15.432C58.6836 15.096 58.7236 14.72 58.8036 14.304C58.8836 13.872 58.9636 13.456 59.0436 13.056C59.1396 12.656 59.2036 12.4 59.2356 12.288C59.3636 11.728 59.4836 11.176 59.5956 10.632C59.7076 10.088 59.7636 9.648 59.7636 9.312C59.7636 8.496 59.4756 8.088 58.8996 8.088C58.4836 8.088 58.1156 8.296 57.7956 8.712C57.4756 9.112 57.2196 9.64 57.0276 10.296L55.3956 18H51.9396L54.4836 6H57.9396L57.6756 7.248C58.4756 6.352 59.4116 5.904 60.4836 5.904C61.2996 5.904 61.9476 6.128 62.4276 6.576C62.9076 7.024 63.1476 7.704 63.1476 8.616C63.1476 9.08 63.0916 9.6 62.9796 10.176C62.8676 10.736 62.7076 11.424 62.4996 12.24C62.3716 12.736 62.2516 13.224 62.1396 13.704C62.0436 14.168 61.9956 14.536 61.9956 14.808C61.9956 15.128 62.0676 15.376 62.2116 15.552C62.3556 15.728 62.6036 15.816 62.9556 15.816C63.4356 15.816 63.8196 15.648 64.1076 15.312C64.3956 14.96 64.6836 14.424 64.9716 13.704H65.9796C65.3876 15.464 64.6996 16.648 63.9156 17.256C63.1476 17.848 62.3476 18.144 61.5156 18.144ZM69.1928 24C68.4408 24 67.7768 23.752 67.2008 23.256C66.6408 22.776 66.3608 22.16 66.3608 21.408C66.3608 20.704 66.5368 20.128 66.8888 19.68C67.2408 19.232 67.6968 18.88 68.2568 18.624C68.8168 18.368 69.5688 18.096 70.5128 17.808L70.7288 16.8C69.8968 17.696 68.9368 18.144 67.8488 18.144C66.9368 18.144 66.1768 17.832 65.5688 17.208C64.9607 16.584 64.6567 15.608 64.6567 14.28C64.6567 13.096 64.8888 11.856 65.3528 10.56C65.8328 9.248 66.5368 8.144 67.4648 7.248C68.4088 6.336 69.5288 5.88 70.8248 5.88C71.4808 5.88 71.9688 5.992 72.2888 6.216C72.6088 6.44 72.7688 6.736 72.7688 7.104V7.152L73.0088 6H76.4888L73.5608 19.92C73.2408 21.456 72.6728 22.52 71.8568 23.112C71.0568 23.704 70.1688 24 69.1928 24ZM69.4088 15.816C69.7768 15.816 70.1448 15.664 70.5128 15.36C70.8968 15.04 71.1688 14.592 71.3288 14.016L72.5528 8.208C72.4248 7.648 72.0968 7.368 71.5688 7.368C70.9288 7.368 70.3528 7.744 69.8408 8.496C69.3288 9.232 68.9288 10.128 68.6408 11.184C68.3528 12.224 68.2088 13.144 68.2088 13.944C68.2088 14.744 68.3208 15.256 68.5448 15.48C68.7848 15.704 69.0728 15.816 69.4088 15.816ZM68.6408 21.864C68.9288 21.864 69.2008 21.712 69.4568 21.408C69.7128 21.12 69.9128 20.648 70.0568 19.992L70.3448 18.576C69.4968 18.864 68.8408 19.2 68.3768 19.584C67.9128 19.968 67.6808 20.464 67.6808 21.072C67.6808 21.264 67.7768 21.44 67.9688 21.6C68.1608 21.776 68.3848 21.864 68.6408 21.864Z" fill="white"/>
<path d="M87.2231 2.736L90.7751 2.256L89.0711 10.272C89.8391 10.208 90.5431 9.872 91.1831 9.264C91.8391 8.656 92.3511 7.904 92.7191 7.008C93.0871 6.112 93.2711 5.232 93.2711 4.368C93.2711 3.408 93.0231 2.624 92.5271 2.016C92.0311 1.408 91.2871 1.104 90.2951 1.104C88.3431 1.104 86.8151 1.616 85.7111 2.64C84.6231 3.664 84.0791 5.096 84.0791 6.936C84.0791 7.528 84.1351 7.944 84.2471 8.184C84.3591 8.408 84.4151 8.536 84.4151 8.568C83.5511 8.568 82.9031 8.392 82.4711 8.04C82.0551 7.672 81.8471 7.072 81.8471 6.24C81.8471 5.216 82.2631 4.224 83.0951 3.264C83.9431 2.288 85.0231 1.504 86.3351 0.912C87.6471 0.303999 88.9591 -1.43051e-06 90.2711 -1.43051e-06C91.5351 -1.43051e-06 92.5911 0.215999 93.4391 0.647999C94.2871 1.08 94.9111 1.656 95.3111 2.376C95.7271 3.08 95.9351 3.864 95.9351 4.728C95.9351 5.768 95.6471 6.784 95.0711 7.776C94.5111 8.768 93.7031 9.584 92.6471 10.224C91.5911 10.848 90.3751 11.16 88.9991 11.16H88.8791L87.4151 18H83.9591L87.2231 2.736ZM98.3409 18.144C97.4289 18.144 96.6689 17.832 96.0609 17.208C95.4529 16.584 95.1489 15.608 95.1489 14.28C95.1489 13.096 95.3809 11.856 95.8449 10.56C96.3249 9.248 97.0289 8.144 97.9569 7.248C98.9009 6.336 100.021 5.88 101.317 5.88C101.973 5.88 102.461 5.992 102.781 6.216C103.101 6.44 103.261 6.736 103.261 7.104V7.272L103.525 6H106.981L105.253 14.16C105.189 14.4 105.157 14.656 105.157 14.928C105.157 15.616 105.485 15.96 106.141 15.96C106.589 15.96 106.973 15.752 107.293 15.336C107.629 14.92 107.893 14.376 108.085 13.704H109.093C108.501 15.432 107.765 16.608 106.885 17.232C106.021 17.84 105.149 18.144 104.269 18.144C103.597 18.144 103.053 17.96 102.637 17.592C102.237 17.208 101.997 16.656 101.917 15.936C101.453 16.592 100.933 17.128 100.357 17.544C99.7969 17.944 99.1249 18.144 98.3409 18.144ZM99.9009 15.816C100.301 15.816 100.693 15.632 101.077 15.264C101.477 14.88 101.749 14.36 101.893 13.704L103.045 8.28C103.045 8.072 102.965 7.872 102.805 7.68C102.645 7.472 102.397 7.368 102.061 7.368C101.421 7.368 100.845 7.744 100.333 8.496C99.8209 9.232 99.4209 10.128 99.1329 11.184C98.8449 12.224 98.7009 13.144 98.7009 13.944C98.7009 14.744 98.8129 15.256 99.0369 15.48C99.2769 15.704 99.5649 15.816 99.9009 15.816ZM112.342 24C111.574 24 110.934 23.8 110.422 23.4C109.91 23 109.654 22.424 109.654 21.672C109.654 20.76 110.022 20.024 110.758 19.464C111.494 18.92 112.43 18.464 113.566 18.096L113.854 16.824C113.038 17.704 112.078 18.144 110.974 18.144C110.062 18.144 109.302 17.832 108.694 17.208C108.086 16.584 107.782 15.608 107.782 14.28C107.782 13.096 108.014 11.856 108.478 10.56C108.958 9.248 109.662 8.144 110.59 7.248C111.534 6.336 112.654 5.88 113.95 5.88C114.606 5.88 115.094 5.992 115.414 6.216C115.734 6.44 115.894 6.736 115.894 7.104V7.248L116.158 6H119.614L117.238 17.136C118.006 16.88 118.622 16.496 119.086 15.984C119.55 15.472 119.942 14.712 120.262 13.704H121.27C120.838 15.128 120.254 16.176 119.518 16.848C118.782 17.504 117.95 17.952 117.022 18.192L116.662 19.92C116.342 21.472 115.79 22.536 115.006 23.112C114.222 23.704 113.334 24 112.342 24ZM112.534 15.816C112.902 15.816 113.278 15.648 113.662 15.312C114.046 14.976 114.31 14.52 114.454 13.944L115.678 8.256C115.678 8.064 115.598 7.872 115.438 7.68C115.278 7.472 115.03 7.368 114.694 7.368C114.054 7.368 113.478 7.744 112.966 8.496C112.454 9.232 112.054 10.128 111.766 11.184C111.478 12.224 111.334 13.144 111.334 13.944C111.334 14.744 111.446 15.256 111.67 15.48C111.91 15.704 112.198 15.816 112.534 15.816ZM111.79 22.128C112.062 22.128 112.326 21.944 112.582 21.576C112.838 21.208 113.038 20.68 113.182 19.992L113.326 19.296C111.758 19.872 110.974 20.552 110.974 21.336C110.974 21.544 111.046 21.728 111.19 21.888C111.334 22.048 111.534 22.128 111.79 22.128ZM123.642 18.144C122.474 18.144 121.562 17.84 120.906 17.232C120.25 16.608 119.922 15.64 119.922 14.328C119.922 13.224 120.138 12.008 120.57 10.68C121.002 9.352 121.706 8.208 122.682 7.248C123.658 6.272 124.898 5.784 126.402 5.784C128.162 5.784 129.042 6.552 129.042 8.088C129.042 8.984 128.786 9.808 128.274 10.56C127.762 11.312 127.082 11.92 126.234 12.384C125.386 12.832 124.482 13.088 123.522 13.152C123.49 13.504 123.474 13.744 123.474 13.872C123.474 15.2 123.97 15.864 124.962 15.864C125.41 15.864 125.89 15.744 126.402 15.504C126.914 15.264 127.378 14.96 127.794 14.592C127.362 16.96 125.978 18.144 123.642 18.144ZM123.69 12C124.298 11.984 124.866 11.784 125.394 11.4C125.938 11.016 126.37 10.528 126.69 9.936C127.026 9.328 127.194 8.696 127.194 8.04C127.194 7.384 126.994 7.056 126.594 7.056C126.034 7.056 125.474 7.568 124.914 8.592C124.37 9.6 123.962 10.736 123.69 12Z" fill="#F59A2F"/>
</svg>
